<svg id="Layer_1" data-name="Layer 1" xmlns="http://www.w3.org/2000/svg" viewBox="0 0 401 601"><defs><style>.cls-1{fill:#fff;}.cls-1,.cls-5{stroke:#231f20;stroke-miterlimit:10;}.cls-2{font-size:24px;}.cls-2,.cls-6{fill:#4850a2;}.cls-2,.cls-3,.cls-6,.cls-7{font-family:Arial-BoldMT, Arial;font-weight:700;}.cls-3{font-size:30px;}.cls-3,.cls-7{fill:#231f20;}.cls-4{letter-spacing:-0.02em;}.cls-5{fill:#e6e7e8;}.cls-6{font-size:18px;}.cls-7{font-size:14px;}.cls-8{letter-spacing:-0.07em;}.cls-9{fill:#6d6e71;}.cls-10{fill:#c2b59b;}.cls-11{fill:#3374ba;}.cls-12{fill:#ef4438;}</style></defs><rect class="cls-1" x="0.5" y="0.5" width="400" height="600"/><text class="cls-2" transform="translate(46.38 81.04)">Journal</text><text class="cls-3" transform="translate(46.79 122.12)">Publication <tspan class="cls-4" x="170.01" y="0">T</tspan><tspan x="187.79" y="0">itle 1</tspan></text><rect class="cls-5" x="42.5" y="159.5" width="178" height="155"/><text class="cls-6" transform="translate(235.19 174.18)">Authors</text><text class="cls-7" transform="translate(235.19 196.9)">Michael<tspan class="cls-4" x="51.35" y="0"> </tspan><tspan class="cls-8" x="54.99" y="0">Y</tspan><tspan x="63.29" y="0">oung, John</tspan><tspan x="0" y="16.8">Doe, Jane Doe</tspan></text><rect class="cls-9" x="236.21" y="232.5" width="136.76" height="11" rx="5"/><rect class="cls-9" x="236.21" y="252.25" width="136.76" height="11" rx="5"/><rect class="cls-9" x="236.21" y="272" width="136.76" height="11" rx="5"/><rect class="cls-9" x="236.21" y="291.75" width="136.76" height="11" rx="5"/><rect class="cls-9" x="42.5" y="336" width="330.47" height="11" rx="5"/><rect class="cls-9" x="43.26" y="362.53" width="330.47" height="11" rx="5"/><rect class="cls-9" x="42.5" y="391.13" width="330.47" height="11" rx="5"/><rect class="cls-9" x="42.88" y="416.29" width="330.47" height="11" rx="5"/><rect class="cls-9" x="43.65" y="442.82" width="330.47" height="11" rx="5"/><rect class="cls-9" x="42.88" y="471.41" width="330.47" height="11" rx="5"/><rect class="cls-9" x="43.26" y="496.33" width="330.47" height="11" rx="5"/><rect class="cls-9" x="44.03" y="522.86" width="330.47" height="11" rx="5"/><rect class="cls-9" x="294.44" y="574.31" width="82.7" height="11" rx="5"/><rect class="cls-10" x="45.04" y="549.39" width="164.23" height="35.91" rx="5"/><path class="cls-11" d="M169.14,178.5a2,2,0,0,0,.26-4.07c-.09,0-30-2.41-17.26,42.29l2-.55-2,.56a2.33,2.33,0,0,0,.11.28c1.16,3.4,17.17,53-41.2,40.93-3.08-1.49-33.42-15.32-44.77,15.48a2,2,0,0,0,3.83,1.4c10-27,37.17-14.2,39.23-13.18a1.93,1.93,0,0,0,.63.25l.42-2-.42,2c65.75,13.79,47.32-42.69,46.12-46.2a.19.19,0,0,0,0-.07h0c-11.1-39.09,13-37.11,13.08-37.11Z"/><path class="cls-11" d="M196.83,201.87a2,2,0,1,0-4.07.25c0,.07,2,24.19-37.1,13.09h0l-.07,0c-3.52-1.2-60-19.63-46.21,46.12l2-.41-2,.42a2.17,2.17,0,0,0,.24.63c1,2.06,13.87,29.26-13.18,39.23A2,2,0,0,0,97.85,305c30.79-11.36,17-41.69,15.47-44.77-12.11-58.38,37.53-42.36,40.93-41.2l.29.1.56-2-.55,2c44.7,12.7,42.29-17.18,42.28-17.26Z"/><path class="cls-11" d="M170.44,180.6a2,2,0,0,0-2.89,2.89l20.38,20.38a2,2,0,1,0,2.89-2.89L170.44,180.6Z"/><path class="cls-11" d="M162.59,187.8a2,2,0,1,0-2.89,2.89l21,21a2,2,0,1,0,2.89-2.89l-21-21Z"/><path class="cls-11" d="M158,198.25a2,2,0,0,0-2.89,2.89l15.17,15.17a2,2,0,1,0,2.89-2.88L158,198.25Z"/><path class="cls-12" d="M138.7,219.29a2,2,0,0,0-2.89,2.89l13.43,13.43a2,2,0,1,0,2.89-2.88L138.7,219.29Z"/><path class="cls-12" d="M124.87,222.74a2,2,0,0,0-2.89,2.89l23.81,23.81a2,2,0,1,0,2.89-2.89l-23.81-23.81Z"/><path class="cls-12" d="M120.37,233.28a2,2,0,0,0-2.89,2.89l17.77,17.77a2,2,0,0,0,2.89-2.89l-17.77-17.77Z"/><path class="cls-12" d="M117.18,245.14a2,2,0,1,0-2.89,2.89l9.1,9.1a2,2,0,1,0,2.89-2.89l-9.1-9.1Z"/><path class="cls-11" d="M100.74,262a2,2,0,1,0-2.89,2.89l8.68,8.67a2,2,0,0,0,2.88-2.89L100.74,262Z"/><path class="cls-11" d="M87.37,263.68a2,2,0,0,0-2.89,2.89l20.37,20.37a2,2,0,0,0,2.89-2.88L87.37,263.68Z"/><path class="cls-11" d="M78.26,269.63a2,2,0,1,0-2.88,2.88L98.91,296a2,2,0,0,0,2.88-2.88L78.26,269.63Z"/></svg>